<svg id="Camada_1" data-name="Camada 1" xmlns="http://www.w3.org/2000/svg" viewBox="0 0 923 622" width="100px" height="100px"><defs><style>.cls-1{fill:#f2f2f2;}</style></defs><path class="cls-1" d="M961,651H811c0-172-139.46-311.5-311.5-311.5S188,479,188,651H38c0-254.88,206.62-461.5,461.5-461.5S961,396.12,961,651Z" transform="translate(-38 -189.5)"/><path class="cls-1" d="M660,651v.5a160,160,0,0,1-320,0V651Z" transform="translate(-38 -189.5)"/><path class="cls-1" d="M660,651v.5a160,160,0,0,1-320,0V651Z" transform="translate(-38 -189.5)"/><path class="cls-1" d="M660,651v.5a160,160,0,0,1-320,0V651Z" transform="translate(-38 -189.5)"/></svg>